<svg width="22" height="22" viewBox="0 0 22 22" fill="none" xmlns="http://www.w3.org/2000/svg">
<path d="M3.66667 16.5C3.40694 16.5 3.18939 16.412 3.014 16.236C2.838 16.0606 2.75 15.8431 2.75 15.5833C2.75 15.3236 2.838 15.1061 3.014 14.9307C3.18939 14.7547 3.40694 14.6667 3.66667 14.6667H18.3333C18.5931 14.6667 18.8106 14.7547 18.986 14.9307C19.162 15.1061 19.25 15.3236 19.25 15.5833C19.25 15.8431 19.162 16.0606 18.986 16.236C18.8106 16.412 18.5931 16.5 18.3333 16.5H3.66667ZM3.66667 11.9167C3.40694 11.9167 3.18939 11.8287 3.014 11.6527C2.838 11.4773 2.75 11.2597 2.75 11C2.75 10.7403 2.838 10.5224 3.014 10.3464C3.18939 10.171 3.40694 10.0833 3.66667 10.0833H18.3333C18.5931 10.0833 18.8106 10.171 18.986 10.3464C19.162 10.5224 19.25 10.7403 19.25 11C19.25 11.2597 19.162 11.4773 18.986 11.6527C18.8106 11.8287 18.5931 11.9167 18.3333 11.9167H3.66667ZM3.66667 7.33333C3.40694 7.33333 3.18939 7.24564 3.014 7.07025C2.838 6.89425 2.75 6.67639 2.75 6.41667C2.75 6.15694 2.838 5.93908 3.014 5.76308C3.18939 5.58769 3.40694 5.5 3.66667 5.5H18.3333C18.5931 5.5 18.8106 5.58769 18.986 5.76308C19.162 5.93908 19.25 6.15694 19.25 6.41667C19.25 6.67639 19.162 6.89425 18.986 7.07025C18.8106 7.24564 18.5931 7.33333 18.3333 7.33333H3.66667Z" fill="#2E2F42"/>
</svg>
